# xmcd CD database file
#
# Track frame offsets:
#	150
#	29503
#	60773
#	93495
#	117850
#	148700
#	166068
#	181373
#	212088
#	243598
#
# Disc length: 3598 seconds
#
# Revision: 0
# Processed by: cddbd v1.5PL3 Copyright (c) Steve Scherf et al.
# Submitted via: CDex 1.51
#
DISCID=840e0c0a
DTITLE=Dragon Ash - Harvest Remixes
DYEAR=2004
DGENRE=Hip-Hop
TTITLE0=Canvas（Riow Arai Mix）
TTITLE1=Landscape（Techno−x Mix）
TTITLE2=Massy Evolution（STROBO Mix）
TTITLE3=morrow（DRY ＆ Heavy Remix）
TTITLE4=House Of Velocity（Mold Mix）
TTITLE5=Gymnopedie＃1（Pulse Programming Mix）
TTITLE6=Byakuya（HOOD Mix）
TTITLE7=Sakuri Makori（BOTS Mix）
TTITLE8=United Rhythm（Ganja Kru Mix）
TTITLE9=Harvest（3rd Force Mix）
EXTD=YEAR: 2004
EXTT0=
EXTT1=
EXTT2=
EXTT3=
EXTT4=
EXTT5=
EXTT6=
EXTT7=
EXTT8=
EXTT9=
PLAYORDER=
